#!OML:ASF E:\motion texture\Top Level 1\Subject 1\Session 1\male.ASF
:FULLY-SPECIFIED
:DEGREES
297
root 22.4058 18.0273 6.14284 113.869 -83.4433 -106.271
lowerback 2.23226 -1.98559 5.43945
upperback -2.46064 -2.40956 4.44133
thorax -3.83148 -1.33708 1.68854
lowerneck -6.87037 -12.478 -15.1038
upperneck -6.92649 -15.6247 9.34592
head 0.882758 -7.63426 4.47699
rclavicle -2.55935e-014 1.51076e-014
rhumerus -23.8621 -16.4763 -28.4858
rradius 83.4014
rwrist -4.47393
rhand -14.3505 -18.9755
rfingers 7.12502
rthumb 11.7912 -48.6236
lclavicle -2.55935e-014 1.51076e-014
lhumerus -43.0527 9.83659 70.3322
lradius 44.5417
lwrist -22.2654
lhand -10.6271 15.0867
lfingers 7.12502
lthumb 15.3797 44.4947
rfemur -9.17924 5.45476 30.0116
rtibia 16.788
rfoot -10.5051 -8.5656
rtoes 15.2853
lfemur -28.6249 4.76421 -7.17029
ltibia 40.6865
lfoot -7.36767 3.51863
ltoes -16.2967
298
root 22.3047 18.022 6.14653 114.082 -83.3953 -106.492
lowerback 2.23767 -2.02404 5.53774
upperback -2.52456 -2.45324 4.36231
thorax -3.90972 -1.36364 1.55752
lowerneck -6.90864 -12.5011 -15.1451
upperneck -7.04908 -15.6502 9.30187
head 0.85271 -7.6457 4.47066
rclavicle 5.01931e-015 1.27222e-014
rhumerus -23.0769 -17.0854 -26.8907
rradius 84.6938
rwrist -4.99465
rhand -14.4088 -18.9039
rfingers 7.12502
rthumb 11.7349 -48.5552
lclavicle 5.01931e-015 1.27222e-014
lhumerus -43.313 9.63406 69.6577
lradius 45.1281
lwrist -21.9155
lhand -10.7392 15.099
lfingers 7.12502
lthumb 15.2718 44.5153
rfemur -8.7631 5.48032 30.0853
rtibia 16.7384
rfoot -10.7773 -8.67124
rtoes 14.9245
lfemur -28.8284 4.77368 -6.99818
ltibia 39.362
lfoot -7.48014 3.88833
ltoes -16.3215
299
root 22.2033 18.0161 6.15035 114.213 -83.3475 -106.631
lowerback 2.23774 -2.06227 5.63852
upperback -2.58766 -2.49713 4.28216
thorax -3.98458 -1.39052 1.42382
lowerneck -6.951 -12.5161 -15.1802
upperneck -7.15909 -15.6652 9.24796
head 0.82452 -7.65191 4.46085
rclavicle 9.83984e-015 2.22639e-014
rhumerus -22.2724 -17.7679 -25.2826
rradius 85.9048
rwrist -5.52937
rhand -14.4359 -18.8181
rfingers 7.12502
rthumb 11.7088 -48.4709
lclavicle 9.83984e-015 2.22639e-014
lhumerus -43.5687 9.439 68.9736
lradius 45.6865
lwrist -21.5738
lhand -10.8431 15.1125
lfingers 7.12502
lthumb 15.1717 44.5363
rfemur -8.34844 5.5032 30.1626
rtibia 16.6897
rfoot -11.0449 -8.78838
rtoes 14.5422
lfemur -29.0091 4.76826 -6.81907
ltibia 38.006
lfoot -7.56764 4.24704
ltoes -16.3635
300
root 22.1014 18.0098 6.15431 114.273 -83.2999 -106.696
lowerback 2.23402 -2.09983 5.74064
upperback -2.6506 -2.54051 4.20107
thorax -4.05759 -1.41734 1.28832
lowerneck -6.99955 -12.5235 -15.211
upperneck -7.25295 -15.6697 9.18473
head 0.799755 -7.65284 4.44769
rclavicle 4.33102e-014 -1.59028e-015
rhumerus -21.4503 -18.5237 -23.6669
rradius 87.0281
rwrist -6.07667
rhand -14.428 -18.7205
rfingers 7.12502
rthumb 11.7164 -48.3728
lclavicle 4.33102e-014 -1.59028e-015
lhumerus -43.8206 9.25088 68.2823
lradius 46.2158
lwrist -21.239
lhand -10.9436 15.1271
lfingers 7.12502
lthumb 15.0748 44.5582
rfemur -7.93539 5.52329 30.2428
rtibia 16.6445
rfoot -11.3106 -8.91441
rtoes 14.1493
lfemur -29.1675 4.7493 -6.63337
ltibia 36.6256
lfoot -7.63224 4.59507
ltoes -16.4144
301
root 21.999 18.0029 6.15843 114.263 -83.2525 -106.691
lowerback 2.22516 -2.13632 5.84467
upperback -2.71244 -2.58303 4.11852
thorax -4.127 -1.44392 1.15003
lowerneck -7.05194 -12.5243 -15.2398
upperneck -7.33408 -15.6651 9.1174
head 0.777855 -7.64916 4.43312
rclavicle 5.02925e-014 -3.81667e-014
rhumerus -20.6137 -19.3521 -22.0501
rradius 88.0594
rwrist -6.63614
rhand -14.3964 -18.6198
rfingers 7.12502
rthumb 11.7469 -48.2704
lclavicle 5.02925e-014 -3.81667e-014
lhumerus -44.0659 9.06958 67.586
lradius 46.7147
lwrist -20.9115
lhand -11.0399 15.1464
lfingers 7.12502
lthumb 14.9821 44.5844
rfemur -7.52439 5.54064 30.3258
rtibia 16.6028
rfoot -11.5742 -9.04821
rtoes 13.7476
lfemur -29.3058 4.71652 -6.44145
ltibia 35.2287
lfoot -7.67648 4.93518
ltoes -16.4744
302
root 21.8962 17.9956 6.16265 114.174 -83.2048 -106.605
lowerback 2.21183 -2.17261 5.94997
upperback -2.77295 -2.62579 4.03513
thorax -4.19297 -1.47077 1.01004
lowerneck -7.10706 -12.5186 -15.2663
upperneck -7.40232 -15.6517 9.04486
head 0.758636 -7.64111 4.41682
rclavicle 1.67973e-014 -1.27222e-014
rhumerus -19.7632 -20.2507 -20.4395
rradius 88.9931
rwrist -7.20432
rhand -14.3395 -18.5168
rfingers 7.12502
rthumb 11.8018 -48.1642
lclavicle 1.67973e-014 -1.27222e-014
lhumerus -44.3071 8.89606 66.8858
lradius 47.1839
lwrist -20.5928
lhand -11.1328 15.1674
lfingers 7.12502
lthumb 14.8926 44.6121
rfemur -7.1132 5.55496 30.4127
rtibia 16.5641
rfoot -11.8352 -9.18973
rtoes 13.3372
lfemur -29.4241 4.66932 -6.24229
ltibia 33.823
lfoot -7.7021 5.26999
ltoes -16.5401
303
root 21.7928 17.9879 6.16711 114.047 -83.1551 -106.481
lowerback 2.19538 -2.20651 6.05773
upperback -2.83282 -2.66572 3.9503
thorax -4.25696 -1.49644 0.866926
lowerneck -7.16692 -12.5082 -15.2906
upperneck -7.45555 -15.6314 8.96713
head 0.743246 -7.6296 4.39841
rclavicle -7.15625e-015 -6.99722e-014
rhumerus -18.903 -21.2171 -18.8401
rradius 89.8256
rwrist -7.77853
rhand -14.2568 -18.4115
rfingers 7.12502
rthumb 11.8815 -48.0544
lclavicle -7.15625e-015 -6.99722e-014
lhumerus -44.5436 8.73015 66.1837
lradius 47.6237
lwrist -20.2833
lhand -11.2204 15.1911
lfingers 7.12502
lthumb 14.8081 44.642
rfemur -6.70546 5.567 30.5028
rtibia 16.5322
rfoot -12.0937 -9.33347
rtoes 12.9156
lfemur -29.5247 4.61159 -6.03648
ltibia 32.4159
lfoot -7.71141 5.60265
ltoes -16.6115
